# Blender v2.80 (sub 48) OBJ File: ''
# www.blender.org
mtllib Playzone.mtl
o Arena.001_Arena_(1).001
v 49.520657 6.882141 -20.512091
v 37.901482 6.882143 -37.901440
v 35.359531 6.882143 -35.359501
v 46.199451 6.882141 -19.136406
v 20.512152 6.882145 -49.520638
v 19.136459 6.882145 -46.199429
v 0.000027 6.882146 -53.600758
v 0.000025 6.882145 -50.005913
v -20.512102 6.882145 -49.520657
v -19.136408 6.882145 -46.199451
v -37.901451 6.882143 -37.901482
v -35.359509 6.882143 -35.359531
v -49.520638 6.882141 -20.512142
v -46.199432 6.882141 -19.136450
v -53.600769 6.882137 -0.000018
v -50.005917 6.882137 -0.000017
v -49.520657 6.882134 20.512112
v -46.199451 6.882134 19.136421
v -37.901478 6.882131 37.901459
v -35.359531 6.882132 35.359512
v -20.512135 6.882129 49.520649
v -19.136440 6.882130 46.199440
v -0.000008 6.882129 53.600769
v -0.000007 6.882129 50.005917
v 20.512119 6.882129 49.520657
v 19.136431 6.882130 46.199448
v 37.901459 6.882131 37.901459
v 35.359512 6.882132 35.359524
v 49.520653 6.882134 20.512127
v 46.199444 6.882134 19.136440
v 53.600769 6.882137 0.000001
v 50.005917 6.882137 0.000001
v 34.193611 -3.707500 -34.193573
v 44.676094 -3.707502 -18.505411
v 18.505461 -3.707498 -44.676060
v 0.000024 -3.707498 -48.357040
v -18.505417 -3.707498 -44.676094
v -34.193581 -3.707500 -34.193600
v -44.676071 -3.707502 -18.505459
v -48.357044 -3.707505 -0.000018
v -44.676094 -3.707509 18.505424
v -34.193600 -3.707511 34.193581
v -18.505449 -3.707513 44.676083
v -0.000007 -3.707513 48.357044
v 18.505436 -3.707513 44.676083
v 34.193588 -3.707511 34.193600
v 44.676083 -3.707509 18.505440
v 48.357044 -3.707505 -0.000001
v 0.000000 -3.707506 0.000002
vt 0.000000 0.000000
vt 1.000000 0.000000
vt 1.000000 1.000000
vt 0.000000 1.000000
vt 0.000000 0.000000
vt 1.000000 0.000000
vt 1.000000 1.000000
vt 0.000000 1.000000
vt 0.000000 0.000000
vt 1.000000 0.000000
vt 1.000000 1.000000
vt 0.000000 1.000000
vt 0.000000 0.000000
vt 1.000000 0.000000
vt 1.000000 1.000000
vt 0.000000 1.000000
vt 0.000000 0.000000
vt 1.000000 0.000000
vt 1.000000 1.000000
vt 0.000000 1.000000
vt 0.000000 0.000000
vt 1.000000 0.000000
vt 1.000000 1.000000
vt 0.000000 1.000000
vt 0.000000 0.000000
vt 1.000000 0.000000
vt 1.000000 1.000000
vt 0.000000 1.000000
vt 0.000000 0.000000
vt 1.000000 0.000000
vt 1.000000 1.000000
vt 0.000000 1.000000
vt 0.000000 0.000000
vt 1.000000 0.000000
vt 1.000000 1.000000
vt 0.000000 1.000000
vt 0.000000 0.000000
vt 1.000000 0.000000
vt 1.000000 1.000000
vt 0.000000 1.000000
vt 0.000000 0.000000
vt 1.000000 0.000000
vt 1.000000 1.000000
vt 0.000000 1.000000
vt 0.000000 0.000000
vt 1.000000 0.000000
vt 1.000000 1.000000
vt 0.000000 1.000000
vt 0.000000 0.000000
vt 1.000000 0.000000
vt 1.000000 1.000000
vt 0.000000 1.000000
vt 0.000000 0.000000
vt 1.000000 0.000000
vt 1.000000 1.000000
vt 0.000000 1.000000
vt 0.000000 0.000000
vt 1.000000 0.000000
vt 1.000000 1.000000
vt 0.000000 1.000000
vt 0.000000 0.000000
vt 1.000000 0.000000
vt 1.000000 1.000000
vt 0.000000 1.000000
vt 0.000000 0.000000
vt 1.000000 0.000000
vt 1.000000 1.000000
vt 0.000000 1.000000
vt 0.000000 0.000000
vt 1.000000 0.000000
vt 1.000000 1.000000
vt 0.000000 1.000000
vt 0.000000 0.000000
vt 1.000000 0.000000
vt 1.000000 1.000000
vt 0.000000 1.000000
vt 0.000000 0.000000
vt 1.000000 0.000000
vt 1.000000 1.000000
vt 0.000000 1.000000
vt 0.000000 0.000000
vt 1.000000 0.000000
vt 1.000000 1.000000
vt 0.000000 1.000000
vt 0.000000 0.000000
vt 1.000000 0.000000
vt 1.000000 1.000000
vt 0.000000 1.000000
vt 0.000000 0.000000
vt 1.000000 0.000000
vt 1.000000 1.000000
vt 0.000000 1.000000
vt 0.000000 0.000000
vt 1.000000 0.000000
vt 1.000000 1.000000
vt 0.000000 1.000000
vt 0.000000 0.000000
vt 1.000000 0.000000
vt 1.000000 1.000000
vt 0.000000 1.000000
vt 0.000000 0.000000
vt 1.000000 0.000000
vt 1.000000 1.000000
vt 0.000000 1.000000
vt 0.000000 0.000000
vt 1.000000 0.000000
vt 1.000000 1.000000
vt 0.000000 1.000000
vt 0.000000 0.000000
vt 1.000000 0.000000
vt 1.000000 1.000000
vt 0.000000 1.000000
vt 0.000000 0.000000
vt 1.000000 0.000000
vt 1.000000 1.000000
vt 0.000000 1.000000
vt 0.000000 0.000000
vt 1.000000 0.000000
vt 1.000000 1.000000
vt 0.000000 1.000000
vt 0.000000 0.000000
vt 1.000000 0.000000
vt 1.000000 1.000000
vt 0.000000 1.000000
vt 0.000000 0.000000
vt 1.000000 0.000000
vt 1.000000 1.000000
vt 0.000000 1.000000
vt 0.000000 0.000000
vt 1.000000 0.000000
vt 0.500000 1.000000
vt 0.000000 0.000000
vt 1.000000 0.000000
vt 0.000000 0.000000
vt 1.000000 0.000000
vt 0.000000 0.000000
vt 1.000000 0.000000
vt 0.000000 0.000000
vt 1.000000 0.000000
vt 0.000000 0.000000
vt 1.000000 0.000000
vt 0.000000 0.000000
vt 1.000000 0.000000
vt 0.000000 0.000000
vt 1.000000 0.000000
vt 0.000000 0.000000
vt 1.000000 0.000000
vt 0.000000 0.000000
vt 1.000000 0.000000
vt 0.000000 0.000000
vt 1.000000 0.000000
vt 0.000000 0.000000
vt 1.000000 0.000000
vt 0.000000 0.000000
vt 1.000000 0.000000
vt 0.000000 0.000000
vt 1.000000 0.000000
vt 0.000000 0.000000
vt 1.000000 0.000000
vt 0.000000 0.000000
vt 1.000000 0.000000
vn 0.0000 1.0000 0.0000
vn -0.8219 0.1510 0.5492
vn -0.5492 0.1510 0.8219
vn -0.1929 0.1510 0.9695
vn 0.1929 0.1510 0.9695
vn 0.5492 0.1510 0.8219
vn 0.8219 0.1510 0.5492
vn 0.9695 0.1510 0.1929
vn 0.9695 0.1510 -0.1929
vn 0.8219 0.1510 -0.5492
vn 0.5492 0.1510 -0.8219
vn 0.1929 0.1510 -0.9695
vn -0.1929 0.1510 -0.9695
vn -0.5492 0.1510 -0.8219
vn -0.8219 0.1510 -0.5492
vn -0.9695 0.1510 -0.1929
vn -0.9695 0.1510 0.1929
usemtl initialShadingGroup
s off
f 1/1/1 2/2/1 3/3/1 4/4/1
f 2/5/1 5/6/1 6/7/1 3/8/1
f 5/9/1 7/10/1 8/11/1 6/12/1
f 7/13/1 9/14/1 10/15/1 8/16/1
f 9/17/1 11/18/1 12/19/1 10/20/1
f 11/21/1 13/22/1 14/23/1 12/24/1
f 13/25/1 15/26/1 16/27/1 14/28/1
f 15/29/1 17/30/1 18/31/1 16/32/1
f 17/33/1 19/34/1 20/35/1 18/36/1
f 19/37/1 21/38/1 22/39/1 20/40/1
f 21/41/1 23/42/1 24/43/1 22/44/1
f 23/45/1 25/46/1 26/47/1 24/48/1
f 25/49/1 27/50/1 28/51/1 26/52/1
f 27/53/1 29/54/1 30/55/1 28/56/1
f 29/57/1 31/58/1 32/59/1 30/60/1
f 31/61/1 1/62/1 4/63/1 32/64/1
f 4/65/2 3/66/2 33/67/2 34/68/2
f 3/69/3 6/70/3 35/71/3 33/72/3
f 6/73/4 8/74/4 36/75/4 35/76/4
f 8/77/5 10/78/5 37/79/5 36/80/5
f 10/81/6 12/82/6 38/83/6 37/84/6
f 12/85/7 14/86/7 39/87/7 38/88/7
f 14/89/8 16/90/8 40/91/8 39/92/8
f 16/93/9 18/94/9 41/95/9 40/96/9
f 18/97/10 20/98/10 42/99/10 41/100/10
f 20/101/11 22/102/11 43/103/11 42/104/11
f 22/105/12 24/106/12 44/107/12 43/108/12
f 24/109/13 26/110/13 45/111/13 44/112/13
f 26/113/14 28/114/14 46/115/14 45/116/14
f 28/117/15 30/118/15 47/119/15 46/120/15
f 30/121/16 32/122/16 48/123/16 47/124/16
f 32/125/17 4/126/17 34/127/17 48/128/17
f 34/129/1 33/130/1 49/131/1
f 33/132/1 35/133/1 49/131/1
f 35/134/1 36/135/1 49/131/1
f 36/136/1 37/137/1 49/131/1
f 37/138/1 38/139/1 49/131/1
f 38/140/1 39/141/1 49/131/1
f 39/142/1 40/143/1 49/131/1
f 40/144/1 41/145/1 49/131/1
f 41/146/1 42/147/1 49/131/1
f 42/148/1 43/149/1 49/131/1
f 43/150/1 44/151/1 49/131/1
f 44/152/1 45/153/1 49/131/1
f 45/154/1 46/155/1 49/131/1
f 46/156/1 47/157/1 49/131/1
f 47/158/1 48/159/1 49/131/1
f 48/160/1 34/161/1 49/131/1
